<svg width="12" height="12" viewBox="0 0 12 12" fill="none" xmlns="http://www.w3.org/2000/svg">
<path d="M9.60157 7.20068C9.56979 7.20068 9.54161 7.20908 9.50863 7.21028L7.69312 4.10391C8.03063 3.76915 8.26114 3.34162 8.35538 2.87555C8.44963 2.40949 8.40337 1.92592 8.22246 1.48622C8.04156 1.04651 7.73418 0.670489 7.33933 0.405879C6.94448 0.141269 6.47996 0 6.00472 0C5.52949 0 5.06497 0.141269 4.67011 0.405879C4.27526 0.670489 3.96788 1.04651 3.78698 1.48622C3.60608 1.92592 3.55981 2.40949 3.65406 2.87555C3.7483 3.34162 3.97881 3.76915 4.31632 4.10391L2.50621 7.21088C2.47203 7.20908 2.44085 7.20068 2.40668 7.20068C1.95776 7.19911 1.51742 7.32364 1.13574 7.5601C0.754068 7.79657 0.446383 8.13547 0.247694 8.53825C0.0490054 8.94103 -0.0327112 9.39153 0.0118415 9.83849C0.0563941 10.2854 0.225427 10.7109 0.49971 11.0665C0.773993 11.4221 1.14251 11.6935 1.56335 11.8499C1.98418 12.0063 2.44043 12.0413 2.88019 11.9511C3.31996 11.8608 3.72557 11.6489 4.0509 11.3393C4.37623 11.0298 4.6082 10.6352 4.72043 10.2003H7.28781C7.40061 10.6339 7.6327 11.0272 7.9577 11.3355C8.2827 11.6439 8.68759 11.8548 9.12639 11.9444C9.5652 12.034 10.0203 11.9987 10.4401 11.8425C10.8598 11.6863 11.2274 11.4155 11.501 11.0607C11.7747 10.706 11.9434 10.2816 11.9881 9.83569C12.0327 9.38982 11.9515 8.94035 11.7537 8.53833C11.5559 8.13632 11.2493 7.79786 10.8689 7.56141C10.4885 7.32495 10.0494 7.19998 9.60157 7.20068ZM7.28781 9.00043H4.72043C4.56784 8.41071 4.1968 7.90113 3.68257 7.57503L5.35718 4.70143C5.77888 4.83419 6.23116 4.83419 6.65286 4.70143L8.33167 7.57263C7.81468 7.89818 7.44134 8.40885 7.28781 9.00043Z" fill="#757598"/>
</svg>
