<svg width="18" height="14" viewBox="0 0 18 14" fill="none" xmlns="http://www.w3.org/2000/svg">
<path d="M0.292786 5.93817C0.105315 6.12569 -3.03115e-07 6.38 -2.91524e-07 6.64516C-2.79933e-07 6.91033 0.105315 7.16464 0.292786 7.35216L5.94979 13.0092C6.04203 13.1047 6.15238 13.1809 6.27438 13.2333C6.39639 13.2857 6.52761 13.3133 6.66039 13.3144C6.79316 13.3156 6.92484 13.2903 7.04774 13.24C7.17064 13.1897 7.28229 13.1155 7.37618 13.0216C7.47007 12.9277 7.54433 12.816 7.59461 12.6931C7.64489 12.5702 7.67019 12.4385 7.66904 12.3058C7.66788 12.173 7.6403 12.0418 7.58789 11.9198C7.53548 11.7978 7.4593 11.6874 7.36379 11.5952L3.41379 7.64516L16.6568 7.64516C16.922 7.64516 17.1764 7.53981 17.3639 7.35227C17.5514 7.16473 17.6568 6.91038 17.6568 6.64516C17.6568 6.37995 17.5514 6.12559 17.3639 5.93806C17.1764 5.75052 16.922 5.64516 16.6568 5.64516L3.41379 5.64516L7.36379 1.69516C7.54594 1.50656 7.64674 1.25396 7.64446 0.991764C7.64218 0.729567 7.53701 0.478754 7.3516 0.293346C7.1662 0.107938 6.91538 0.00276821 6.65319 0.000489898C6.39099 -0.00178842 6.13839 0.0990054 5.94979 0.281164L0.292786 5.93817Z" fill="#494969"/>
</svg>
