<svg width="11" height="13" viewBox="0 0 11 13" fill="none" xmlns="http://www.w3.org/2000/svg">
<path d="M3.44972 11.4894C3.58174 11.926 3.85255 12.3087 4.22191 12.5809C4.59128 12.853 5.0395 13 5.5 13C5.9605 13 6.40872 12.853 6.77809 12.5809C7.14745 12.3087 7.41826 11.926 7.55028 11.4894H3.44972ZM0 10.8847H11V9.0706L9.77778 7.25648V4.23295C9.77778 3.67707 9.66713 3.12663 9.45215 2.61307C9.23717 2.0995 8.92207 1.63287 8.52485 1.2398C8.12762 0.846736 7.65604 0.53494 7.13703 0.322214C6.61803 0.109488 6.06177 0 5.5 0C4.93823 0 4.38197 0.109488 3.86297 0.322214C3.34396 0.53494 2.87238 0.846736 2.47515 1.2398C2.07793 1.63287 1.76283 2.0995 1.54785 2.61307C1.33287 3.12663 1.22222 3.67707 1.22222 4.23295V7.25648L0 9.0706V10.8847Z" fill="#615FA6"/>
</svg>
