<svg width="12" height="15" viewBox="0 0 12 15" fill="none" xmlns="http://www.w3.org/2000/svg">
<path opacity="0.37" d="M7.54524 15H2.22738C0.999174 15 0 13.9486 0 12.6562V4.7168C0 3.42442 0.999174 2.37305 2.22738 2.37305H7.54524C8.77345 2.37305 9.77262 3.42442 9.77262 4.7168V12.6562C9.77262 13.9486 8.77345 15 7.54524 15ZM2.22738 3.54492C1.61332 3.54492 1.11369 4.07065 1.11369 4.7168V12.6562C1.11369 13.3024 1.61332 13.8281 2.22738 13.8281H7.54524C8.1593 13.8281 8.65893 13.3024 8.65893 12.6562V4.7168C8.65893 4.07065 8.1593 3.54492 7.54524 3.54492H2.22738ZM12 11.1914V2.34375C12 1.05138 11.0008 0 9.77262 0H3.59165C3.28407 0 3.0348 0.262295 3.0348 0.585938C3.0348 0.90958 3.28407 1.17188 3.59165 1.17188H9.77262C10.3867 1.17188 10.8863 1.69761 10.8863 2.34375V11.1914C10.8863 11.515 11.1356 11.7773 11.4432 11.7773C11.7507 11.7773 12 11.515 12 11.1914Z" fill="white"/>
</svg>
