<svg width="11" height="11" viewBox="0 0 11 11" fill="none" xmlns="http://www.w3.org/2000/svg">
<path d="M8.97657 0.000549421H2.02342C1.48724 0.00127584 0.973222 0.214557 0.594032 0.593644C0.214843 0.97273 0.00142148 1.48669 0.000549421 2.02288V2.79697C0.000549421 2.94268 0.058432 3.08242 0.161464 3.18546C0.264495 3.28849 0.404236 3.34637 0.549945 3.34637C0.695654 3.34637 0.835395 3.28849 0.938427 3.18546C1.04146 3.08242 1.09934 2.94268 1.09934 2.79697V2.02342C1.09934 1.51359 1.51413 1.09879 2.02397 1.09879H8.97713C9.48696 1.09879 9.90176 1.51359 9.90176 2.02342V8.97657C9.90176 9.48641 9.48696 9.90121 8.97713 9.90121H2.02342C1.77829 9.90092 1.54327 9.80341 1.36993 9.63007C1.19659 9.45673 1.09908 9.22171 1.09879 8.97657V8.20962C1.09879 8.06391 1.04091 7.92417 0.937877 7.82114C0.834845 7.71811 0.695105 7.66022 0.549396 7.66022C0.403687 7.66022 0.263946 7.71811 0.160914 7.82114C0.0578826 7.92417 0 8.06391 0 8.20962V8.97657C0.000581694 9.51304 0.21395 10.0274 0.59329 10.4067C0.972629 10.786 1.48696 10.9994 2.02342 11H8.97657C9.51304 10.9994 10.0274 10.786 10.4067 10.4067C10.786 10.0274 10.9994 9.51304 11 8.97657V2.02342C10.999 1.48709 10.7855 0.973016 10.4062 0.59377C10.027 0.214525 9.51291 0.00101647 8.97657 0V0.000549421Z" fill="#9290C4"/>
<path d="M0.0292969 5.5017C0.0292969 5.64741 0.0871794 5.78715 0.190211 5.89018C0.293243 5.99321 0.432984 6.05109 0.578693 6.05109H5.27438L4.56401 6.76146C4.51296 6.81247 4.47247 6.87303 4.44483 6.93969C4.41719 7.00635 4.40295 7.0778 4.40292 7.14996C4.4029 7.22213 4.41709 7.29359 4.44468 7.36027C4.47227 7.42695 4.51273 7.48754 4.56373 7.53858C4.61474 7.58963 4.67531 7.63012 4.74196 7.65776C4.80862 7.6854 4.88007 7.69964 4.95224 7.69967C5.0244 7.69969 5.09586 7.6855 5.16254 7.65791C5.22922 7.63032 5.28981 7.58987 5.34085 7.53886L6.98904 5.89067C7.04012 5.83965 7.08065 5.77905 7.10829 5.71236C7.13594 5.64566 7.15017 5.57417 7.15017 5.50197C7.15017 5.42977 7.13594 5.35828 7.10829 5.29159C7.08065 5.22489 7.04012 5.1643 6.98904 5.11327L5.34085 3.46509C5.29017 3.41261 5.22955 3.37076 5.16252 3.34197C5.09549 3.31317 5.0234 3.29802 4.95045 3.29738C4.87751 3.29675 4.80516 3.31065 4.73764 3.33827C4.67012 3.3659 4.60878 3.40669 4.5572 3.45828C4.50561 3.50986 4.46482 3.5712 4.4372 3.63872C4.40957 3.70624 4.39567 3.77858 4.39631 3.85153C4.39694 3.92448 4.4121 3.99657 4.44089 4.0636C4.46968 4.13063 4.51154 4.19125 4.56401 4.24193L5.27438 4.9523H0.578693C0.432984 4.9523 0.293243 5.01018 0.190211 5.11322C0.0871794 5.21625 0.0292969 5.35599 0.0292969 5.5017Z" fill="#9290C4"/>
</svg>
