<svg width="14" height="15" viewBox="0 0 14 15" fill="none" xmlns="http://www.w3.org/2000/svg">
<path d="M13.0716 2.02175C13.0643 2.02175 13.0581 2.01561 13.0581 2.0083C13.0587 1.9574 13.0602 1.77721 13.0605 1.74328C13.0605 1.69647 13.0277 1.65874 12.9867 1.65874C12.9629 1.65874 12.9418 1.67161 12.9281 1.6915C12.921 1.70145 12.837 1.82401 12.7851 1.89919C12.7822 1.90328 12.7778 1.90562 12.7728 1.90562H8.6766C8.66053 1.90562 8.64735 1.89275 8.64705 1.87666L8.63886 1.76609C8.63856 1.74738 8.65553 1.73275 8.67395 1.73625L8.88344 1.75615C8.90163 1.75761 8.918 1.74591 8.9224 1.72836L9.07504 1.11027C9.0783 1.09594 9.07034 1.08131 9.05662 1.07634L8.91482 1.02339C8.90663 1.02017 8.90042 1.01344 8.89837 1.00496C8.8726 0.897316 8.66288 0.177719 7.65182 0.0168337C7.15993 -0.0612687 6.83774 0.148467 6.66577 0.315787C6.58929 0.390087 6.52631 0.476965 6.47705 0.571741L6.41672 0.704545C6.41149 0.714783 6.38799 0.839392 6.38799 0.850801L6.41997 1.46422C6.41997 1.48528 6.4299 1.50488 6.44635 1.51775L6.66812 1.6134L6.54564 1.81612C6.54155 1.83103 6.52805 1.84127 6.51252 1.84127C6.51252 1.84127 6.25179 1.848 6.12317 1.85326C5.88208 1.86292 5.34509 2.1569 4.94931 3.00227C4.5605 3.83245 4.49668 3.9708 4.49668 3.9708C4.48849 3.9866 4.47174 3.99654 4.45386 3.99567L4.09271 3.99684C4.07043 3.99684 4.0467 4.01468 4.03731 4.03486L3.47569 5.62412C3.46636 5.64431 3.4719 5.67472 3.48653 5.69169L3.87852 5.93652C3.88936 5.94559 3.89406 5.95993 3.8908 5.97339L3.68609 6.57743C3.68343 6.5909 3.67843 6.60405 3.67138 6.61605L3.39982 6.85504C3.39277 6.86118 3.38633 6.86879 3.38254 6.87727C3.38049 6.88195 3.37875 6.88692 3.37723 6.89189L3.00343 7.8487C2.9985 7.86566 2.98296 7.8771 2.96538 7.8771L2.75559 7.87824C2.70284 7.87824 2.65895 7.91892 2.65425 7.97127L2.52882 9.40142C2.52655 9.42657 2.52329 9.45172 2.51889 9.47687L2.41991 10.0444C2.41604 10.0576 2.40877 10.0692 2.39906 10.0789L2.04989 10.3454C1.88989 10.4981 1.67548 10.7768 1.57058 10.9713L0.407556 13.4235C0.379437 13.4756 0.35685 13.5654 0.35829 13.6248L0.440903 13.7719C0.442116 13.8246 0.42097 14.0569 0.396717 14.1036L0.00707043 14.7841C-0.00172143 14.8007 -0.00232739 14.8203 0.00532759 14.8375L0.0246549 14.8817L0.0829387 14.9978L1.2656 14.9997C1.33889 15.0063 1.41998 14.9125 1.42233 14.8119L1.48653 14.0016L1.46978 13.8796L3.72474 11.2346C3.78363 11.1629 3.86359 11.0366 3.90368 10.9529L4.97826 8.58468C4.99092 8.55869 5.01343 8.53877 5.04102 8.52968L5.10893 8.50778C5.15023 8.4943 5.19541 8.50748 5.22322 8.54082C5.31728 8.65377 5.53844 9.029 5.64621 9.18551C5.73527 9.31543 6.17737 9.95452 6.37041 10.1652C6.42376 10.2231 6.58808 10.2889 6.66168 10.3337C6.6857 10.3483 6.69358 10.3793 6.67979 10.4036L6.03586 11.5338L5.75141 12.8686C5.74149 12.8997 5.73383 12.9318 5.72913 12.964L5.47167 13.891C5.47341 14.008 5.38345 14.0694 5.37617 14.2075L5.28241 14.885C5.2812 14.9057 5.29788 14.9233 5.31872 14.9233L6.90974 14.9321H6.91096C6.913 14.9321 7.02313 14.9306 7.08816 14.9279C7.10051 14.9274 7.12158 14.9253 7.13538 14.9236C7.34744 14.8966 7.49251 14.8677 7.59119 14.8344C7.59558 14.8329 7.59998 14.8314 7.60437 14.8297C7.67297 14.8054 7.71746 14.7785 7.74618 14.7487C7.80037 14.6922 7.86305 14.6228 7.87245 14.5337C7.87275 14.5301 7.87306 14.5269 7.87336 14.5234C7.87336 14.5213 7.87336 14.519 7.87359 14.5169C7.87359 14.512 7.87359 14.5073 7.87359 14.5023C7.87359 14.5018 7.87359 14.5009 7.87359 14.5003C7.87359 14.4959 7.87306 14.4915 7.87245 14.4874C7.8704 14.4696 7.86631 14.4561 7.86161 14.4453C7.86161 14.4453 7.86161 14.4453 7.86161 14.445C7.86161 14.4447 7.86131 14.4444 7.86101 14.4441C7.85957 14.4407 7.85782 14.4377 7.856 14.4347C7.85487 14.433 7.85396 14.4313 7.85252 14.4295C7.84342 14.4169 7.83463 14.4122 7.83349 14.4116C7.8291 14.4091 7.8244 14.4067 7.8194 14.405L7.08058 14.1823C7.03313 14.1677 6.99183 14.1385 6.96249 14.0987L6.76415 13.8056C6.75452 13.7851 6.75892 13.7605 6.77498 13.7447L7.16145 13.3641C7.17463 13.3516 7.18487 13.3361 7.19161 13.3191L8.38192 10.5141C8.43756 10.336 8.41914 10.1357 8.38192 9.92384C8.35434 9.76733 7.95332 9.09483 7.84842 8.90907C7.75611 8.74528 7.18077 7.73991 7.04427 7.50179C7.02874 7.47489 7.0085 7.45089 6.98303 7.43335C6.96484 7.42076 6.94696 7.40468 6.93233 7.38771C6.9177 7.37075 6.90717 7.35086 6.90125 7.32921L6.85585 6.63097C6.85176 6.61576 6.8623 6.60055 6.87814 6.59937L7.08528 6.58211C7.10491 6.58036 7.12249 6.56896 7.13159 6.5517L7.84873 5.20523C7.85866 5.18681 7.85813 5.16428 7.84729 5.14644L7.70048 4.96479C7.69055 4.94811 7.69025 4.92705 7.69987 4.91008L7.91959 4.67285C7.92869 4.65647 7.94923 4.65091 7.9656 4.65998L8.5498 4.98906C8.5852 5.00895 8.62537 5.02066 8.66607 5.02066C8.82811 5.01948 9.09497 4.92383 9.23382 4.839C9.27043 4.81647 9.3006 4.78459 9.32053 4.74657L9.6071 4.07757C9.61089 4.06909 9.62347 4.07026 9.62521 4.07933L9.70518 4.45141C9.71048 4.47482 9.73102 4.48798 9.75444 4.48271L10.5982 4.29521C10.6204 4.29023 10.6342 4.26829 10.6295 4.24607L10.4306 3.40624C10.4279 3.39483 10.43 3.38284 10.4364 3.37289L10.5185 3.24565C10.5287 3.22986 10.5363 3.2126 10.541 3.19475L10.6404 2.74165C10.6429 2.72994 10.6533 2.72146 10.6652 2.72146L12.9992 2.72438C13.0321 2.72438 13.0575 2.69923 13.0575 2.66618V2.2701C13.0575 2.26279 13.0637 2.25665 13.071 2.25665H13.971C13.9868 2.25665 14 2.24378 14 2.22768V2.04925C14 2.03346 13.9871 2.02029 13.971 2.02029H13.0707L13.0716 2.02175Z" fill="#BEBDDE"/>
</svg>
