<svg width="28" height="28" viewBox="0 0 28 28" fill="none" xmlns="http://www.w3.org/2000/svg">
<path d="M27.9981 0.683019L27.9931 0.369779C27.9885 0.0847403 27.6825 -0.0914605 27.4365 0.0496544C26.8823 0.367796 25.976 0.872164 25.0495 1.32096L24.5749 3.17396C24.1291 4.91437 23.228 6.50337 21.9688 7.76625L10.7643 18.5914L9.55751 17.376L20.7811 6.53251C21.8148 5.48919 22.5552 4.17966 22.9226 2.74483L23.0795 2.13212C21.2893 2.66716 19.6984 2.09274 16.041 5.71501C15.9392 5.81581 15.8789 5.95154 15.8722 6.09512L15.7973 7.71657C15.7905 7.86279 15.7281 8.00078 15.623 8.10185C15.5178 8.20293 15.3781 8.25933 15.2327 8.25932H13.9666C13.6545 8.25932 13.4014 8.51418 13.4014 8.82852V10.2663C13.4014 10.5807 13.1484 10.8356 12.8362 10.8356H11.627C11.3148 10.8356 11.0617 11.0904 11.0617 11.4048V12.6648C11.0617 12.9792 10.8087 13.234 10.4965 13.234H8.68609C8.53619 13.234 8.39241 13.294 8.28643 13.4008L6.94834 14.7484L5.87818 13.6706C5.54502 13.3351 5.00479 13.3351 4.67168 13.6706C4.33851 14.0061 4.33851 14.5502 4.67168 14.8857L6.41118 16.6376L0.585189 22.5054C-0.195063 23.2911 -0.195063 24.5698 0.585189 25.3557L2.62565 27.4106C3.40584 28.1965 4.67546 28.1965 5.45565 27.4106L11.2818 21.5429L12.997 23.2704C13.3301 23.6059 13.8704 23.6059 14.2035 23.2704C14.5366 22.9348 14.5366 22.3908 14.2035 22.0553L13.0165 20.8598L23.8826 10.9248C25.2152 9.58262 26.2663 7.98432 26.9733 6.22489C27.6803 4.46546 28.0288 2.58082 27.9981 0.683019Z" fill="#7A6EE5"/>
</svg>
