<svg width="13" height="9" viewBox="0 0 13 9" fill="none" xmlns="http://www.w3.org/2000/svg">
<path d="M10.4 5.14286H2.6C2.21 5.14286 1.95 4.88571 1.95 4.5C1.95 4.11429 2.21 3.85714 2.6 3.85714H10.4C10.79 3.85714 11.05 4.11429 11.05 4.5C11.05 4.88571 10.79 5.14286 10.4 5.14286ZM8.45 9H4.55C4.16 9 3.9 8.74286 3.9 8.35714C3.9 7.97143 4.16 7.71429 4.55 7.71429H8.45C8.84 7.71429 9.1 7.97143 9.1 8.35714C9.1 8.74286 8.84 9 8.45 9ZM12.35 1.28571H0.65C0.26 1.28571 0 1.02857 0 0.642857C0 0.257143 0.26 0 0.65 0H12.35C12.74 0 13 0.257143 13 0.642857C13 1.02857 12.74 1.28571 12.35 1.28571Z" fill="#C6C5FF" fill-opacity="0.58"/>
</svg>
