<svg width="14" height="12" viewBox="0 0 14 12" fill="none" xmlns="http://www.w3.org/2000/svg">
<path d="M4.15488 6.84736C4.3491 6.6214 4.19089 6.26857 3.89532 6.26857H3.01038C3.00449 6.17918 3.00149 6.08961 3.00139 6.00001C3.00139 3.7637 4.79515 1.94436 6.99999 1.94436C8.05956 1.94436 9.02403 2.36466 9.74027 3.04933L10.9881 1.56868C9.89578 0.555157 8.49001 0 6.99999 0C5.41987 0 3.93433 0.624125 2.81701 1.75735C1.69971 2.89061 1.08436 4.39733 1.08436 5.99999C1.08436 6.08985 1.08658 6.17935 1.09043 6.26854H0.345035C0.0494628 6.26854 -0.108773 6.62137 0.0854702 6.84734L1.76697 8.80362L2.12016 9.21452L3.38824 7.73922L4.15488 6.84736ZM13.9145 5.70599L12.6604 4.24687L11.8798 3.33881L10.7654 4.6353L9.84515 5.70599C9.65094 5.93196 9.80915 6.28478 10.1047 6.28478H10.9886C10.844 8.3887 9.11044 10.0556 7.00002 10.0556C6.07877 10.0556 5.2294 9.73784 4.55255 9.20488L3.30461 10.6856C4.35006 11.5372 5.63988 12 7.00005 12C8.58017 12 10.0657 11.3759 11.183 10.2426C12.2339 9.17678 12.8406 7.7805 12.909 6.28481H13.655C13.9505 6.28478 14.1088 5.93196 13.9145 5.70599Z" fill="#C7C5FF"/>
</svg>
