<svg width="10" height="13" viewBox="0 0 10 13" fill="none" xmlns="http://www.w3.org/2000/svg">
<path d="M9.72221 4.875H8.88888V3.79166C8.88888 1.70092 7.14437 0 5 0C2.85562 0 1.11112 1.70092 1.11112 3.79166V4.875H0.277786C0.2413 4.87498 0.205167 4.88197 0.171454 4.89557C0.13774 4.90917 0.107108 4.92912 0.0813083 4.95428C0.0555087 4.97943 0.0350481 5.0093 0.0210965 5.04217C0.00714494 5.07504 -2.3907e-05 5.11027 5.98963e-08 5.14584V11.9167C5.98963e-08 12.5142 0.498307 13 1.11112 13H8.88891C9.50169 13 10 12.5142 10 11.9167V5.14584C10 5.11027 9.99286 5.07504 9.9789 5.04217C9.96495 5.0093 9.94449 4.97943 9.91869 4.95428C9.89289 4.92912 9.86226 4.90917 9.82855 4.89557C9.79483 4.88197 9.7587 4.87498 9.72221 4.875ZM5.83172 10.5326C5.83602 10.5705 5.83208 10.6088 5.82016 10.6451C5.80825 10.6813 5.78862 10.7148 5.76256 10.7431C5.7365 10.7715 5.7046 10.7942 5.66893 10.8098C5.63327 10.8253 5.59464 10.8333 5.55557 10.8333H4.44445C4.40539 10.8333 4.36676 10.8253 4.33109 10.8098C4.29543 10.7942 4.26353 10.7715 4.23747 10.7431C4.21141 10.7148 4.19178 10.6813 4.17986 10.6451C4.16795 10.6088 4.16401 10.5705 4.16831 10.5326L4.34354 8.99623C4.05898 8.79442 3.88891 8.47519 3.88891 8.125C3.88891 7.52753 4.38721 7.04166 5.00003 7.04166C5.61284 7.04166 6.11115 7.52751 6.11115 8.125C6.11115 8.47519 5.94107 8.79442 5.65651 8.99623L5.83172 10.5326ZM7.22221 4.875H2.77779V3.79166C2.77779 2.59698 3.77469 1.625 5 1.625C6.22531 1.625 7.22221 2.59698 7.22221 3.79166V4.875Z" fill="#B292FF"/>
</svg>
