<svg width="12" height="16" viewBox="0 0 12 16" fill="none" xmlns="http://www.w3.org/2000/svg">
<path d="M11.6667 6H10.6667V4.66666C10.6667 2.09344 8.57325 0 6 0C3.42675 0 1.33334 2.09344 1.33334 4.66666V6H0.333344C0.28956 5.99997 0.246201 6.00857 0.205745 6.02532C0.165288 6.04206 0.12853 6.06661 0.09757 6.09757C0.0666105 6.12853 0.0420577 6.16529 0.0253158 6.20574C0.00857393 6.2462 -2.86884e-05 6.28956 7.18756e-08 6.33334V14.6667C7.18756e-08 15.402 0.597969 16 1.33334 16H10.6667C11.402 16 12 15.402 12 14.6667V6.33334C12 6.28956 11.9914 6.2462 11.9747 6.20574C11.9579 6.16529 11.9334 6.12853 11.9024 6.09757C11.8715 6.06661 11.8347 6.04206 11.7943 6.02532C11.7538 6.00857 11.7104 5.99997 11.6667 6ZM6.99806 12.9632C7.00322 13.0098 6.9985 13.057 6.98419 13.1016C6.96989 13.1463 6.94634 13.1874 6.91507 13.2223C6.8838 13.2572 6.84552 13.2852 6.80272 13.3043C6.75992 13.3234 6.71357 13.3333 6.66669 13.3333H5.33334C5.28646 13.3333 5.24011 13.3234 5.19731 13.3043C5.15451 13.2852 5.11623 13.2572 5.08496 13.2223C5.05369 13.1874 5.03014 13.1463 5.01584 13.1016C5.00154 13.057 4.99681 13.0098 5.00197 12.9632L5.21225 11.0723C4.87078 10.8239 4.66669 10.431 4.66669 10C4.66669 9.26466 5.26466 8.66666 6.00003 8.66666C6.73541 8.66666 7.33337 9.26462 7.33337 10C7.33337 10.431 7.12928 10.8239 6.78781 11.0723L6.99806 12.9632ZM8.66666 6H3.33334V4.66666C3.33334 3.19628 4.52962 2 6 2C7.47038 2 8.66666 3.19628 8.66666 4.66666V6Z" fill="#FF9000"/>
</svg>
