<svg width="17" height="12" viewBox="0 0 17 12" fill="none" xmlns="http://www.w3.org/2000/svg">
<path d="M16.6044 0.528952V0.330143C16.6044 0.147727 16.4657 2.24203e-06 16.2946 2.24203e-06H2.28191C2.16432 -0.000341601 2.04963 0.0388721 1.9542 0.112052C1.85876 0.185231 1.78746 0.28864 1.75044 0.407531L1.23508 2.05175C1.14878 2.32794 0.983025 2.56816 0.761331 2.73834C0.539638 2.90852 0.273264 3.00002 0 2.99986V3.99867C0.899738 3.99867 1.51495 4.96736 1.17979 5.85676L0.545605 8.08692C0.223793 9.21452 0.0426374 10.3823 0.00679995 11.5603C-0.000536818 11.8 0.176977 12 0.402269 12H4.37092C4.46233 12 4.55091 11.9663 4.62161 11.9046C4.6923 11.8428 4.74075 11.7569 4.7587 11.6615L5.48271 7.80405C5.52512 7.57735 5.64003 7.37334 5.80785 7.2268C5.97568 7.08026 6.18602 7.00025 6.40303 7.00043H8.45088C9.47856 7.00043 10.3541 6.12018 10.3282 5.02569C10.3249 4.89211 10.3468 4.75917 10.3925 4.63474C10.4382 4.5103 10.5068 4.39687 10.5943 4.30114C10.6819 4.20542 10.7865 4.12934 10.9021 4.07739C11.0177 4.02544 11.1419 3.99867 11.2673 3.99867H16.2948C16.3355 3.99872 16.3758 3.99021 16.4134 3.97364C16.4511 3.95707 16.4852 3.93275 16.514 3.90208C16.5428 3.87142 16.5657 3.835 16.5812 3.79493C16.5968 3.75485 16.6048 3.7119 16.6047 3.66853V2.55001C16.823 2.55001 17 2.3615 17 2.12895V0.949823C17 0.717276 16.8228 0.52857 16.6045 0.52857L16.6044 0.528952ZM6.57231 6.0001C6.32318 6.00005 6.08427 5.89459 5.90812 5.70693C5.73198 5.51926 5.63302 5.26476 5.63302 4.99938V3.99886C5.88219 3.99886 6.12114 4.10429 6.29733 4.29196C6.47351 4.47963 6.57249 4.73417 6.57249 4.99957C6.57249 5.27577 6.67681 5.52509 6.84753 5.70694C6.93456 5.8001 7.03805 5.87397 7.15203 5.92428C7.26601 5.9746 7.38821 6.00037 7.51159 6.0001H6.57231ZM8.45106 6.0001C8.2019 6.0001 7.96294 5.89466 7.78676 5.70699C7.61057 5.51932 7.51159 5.26479 7.51159 4.99938V3.99886H8.45106C8.69795 4.00249 8.93358 4.10951 9.10696 4.29677C9.28035 4.48402 9.37756 4.73646 9.37756 4.99948C9.37756 5.26249 9.28035 5.51493 9.10696 5.70219C8.93358 5.88945 8.69795 5.99647 8.45106 6.0001Z" fill="#615FA6"/>
</svg>
