<svg width="14" height="16" viewBox="0 0 14 16" fill="none" xmlns="http://www.w3.org/2000/svg">
<path d="M7.3667 6.36354V7.16843C7.3667 7.42404 7.41776 7.63854 7.51854 7.80563C7.65752 8.03623 7.88568 8.16836 8.14473 8.16836C8.39853 8.16836 8.65076 8.04476 8.89431 7.80122L11.5528 5.14277C12.1365 4.55907 12.1365 3.60932 11.5528 3.02562L8.89431 0.367142C8.6507 0.123506 8.39853 0 8.14473 0C7.75745 0 7.3667 0.309235 7.3667 0.999932V1.73096C3.59241 1.95381 0.467862 4.85033 0.00347849 8.64263C-0.00913656 8.74564 0.0127712 8.84992 0.0657704 8.93915C0.11877 9.02838 0.199867 9.09751 0.29636 9.13571C0.392867 9.17392 0.499321 9.17904 0.599047 9.15026C0.698773 9.12148 0.786136 9.06044 0.847449 8.97669C2.09302 7.2748 4.09291 6.25874 6.19712 6.25874C6.58931 6.259 6.98071 6.29408 7.3667 6.36354Z" fill="#615FA6"/>
<path d="M13.7038 6.87327C13.6073 6.83505 13.5008 6.82994 13.4011 6.85874C13.3014 6.88754 13.214 6.94863 13.1527 7.03242C11.9073 8.73418 9.9074 9.75025 7.80319 9.75025C7.411 9.74998 7.0196 9.71491 6.63361 9.64544V8.84056C6.63361 8.14986 6.24276 7.84062 5.85558 7.84062C5.60178 7.84062 5.34955 7.96422 5.10588 8.20789L2.44743 10.8662C1.86386 11.4499 1.86386 12.3997 2.44756 12.9835L5.10591 15.6418C5.34952 15.8855 5.60175 16.009 5.85558 16.009C6.24276 16.009 6.63361 15.6997 6.63361 15.0091V14.278C10.4081 14.0551 13.5324 11.1586 13.9968 7.36648C14.0095 7.26344 13.9876 7.15911 13.9345 7.06986C13.8815 6.9806 13.8004 6.91146 13.7038 6.87327Z" fill="#615FA6"/>
</svg>
