<svg width="13" height="12" viewBox="0 0 13 12" fill="none" xmlns="http://www.w3.org/2000/svg">
<path d="M13 10.1602C13 10.2855 12.9486 10.4056 12.8572 10.4942C12.7657 10.5828 12.6417 10.6326 12.5125 10.6326H9.19747C9.08889 11.0249 8.84978 11.3715 8.51719 11.6188C8.18461 11.866 7.77715 12 7.35797 12C6.9388 12 6.53134 11.866 6.19875 11.6188C5.86617 11.3715 5.62706 11.0249 5.51848 10.6326H0.487498C0.358206 10.6326 0.234209 10.5828 0.142785 10.4942C0.0513612 10.4056 0 10.2855 0 10.1602C0 10.0349 0.0513612 9.91473 0.142785 9.82614C0.234209 9.73755 0.358206 9.68778 0.487498 9.68778H5.51848C5.62706 9.29546 5.86617 8.94881 6.19875 8.70158C6.53134 8.45435 6.9388 8.32034 7.35797 8.32034C7.77715 8.32034 8.18461 8.45435 8.51719 8.70158C8.84978 8.94881 9.08889 9.29546 9.19747 9.68778H12.5125C12.6417 9.68778 12.7657 9.73755 12.8572 9.82614C12.9486 9.91473 13 10.0349 13 10.1602ZM13 1.83983C13 1.96512 12.9486 2.08527 12.8572 2.17386C12.7657 2.26245 12.6417 2.31222 12.5125 2.31222H10.92C10.8114 2.70454 10.5723 3.05119 10.2397 3.29842C9.90711 3.54566 9.49964 3.67966 9.08047 3.67966C8.66129 3.67966 8.25383 3.54566 7.92125 3.29842C7.58867 3.05119 7.34955 2.70454 7.24098 2.31222H0.487498C0.423479 2.31222 0.360087 2.3 0.300941 2.27626C0.241795 2.25252 0.188053 2.21773 0.142785 2.17386C0.0975165 2.12999 0.0616076 2.07792 0.0371086 2.02061C0.0126095 1.96329 0 1.90187 0 1.83983C0 1.7778 0.0126095 1.71637 0.0371086 1.65905C0.0616076 1.60174 0.0975165 1.54967 0.142785 1.5058C0.188053 1.46194 0.241795 1.42714 0.300941 1.4034C0.360087 1.37966 0.423479 1.36744 0.487498 1.36744H7.24098C7.34955 0.975122 7.58867 0.628472 7.92125 0.381239C8.25383 0.134005 8.66129 0 9.08047 0C9.49964 0 9.90711 0.134005 10.2397 0.381239C10.5723 0.628472 10.8114 0.975122 10.92 1.36744H12.5125C12.5767 1.36659 12.6405 1.37823 12.7 1.40167C12.7596 1.42511 12.8137 1.45988 12.8591 1.50391C12.9046 1.54795 12.9404 1.60036 12.9646 1.65806C12.9888 1.71575 13.0008 1.77756 13 1.83983ZM13 5.99685C13.0008 6.05912 12.9888 6.12093 12.9646 6.17862C12.9404 6.23632 12.9046 6.28873 12.8591 6.33277C12.8137 6.3768 12.7596 6.41157 12.7 6.43501C12.6405 6.45845 12.5767 6.47009 12.5125 6.46924H4.90748C4.79891 6.86156 4.55979 7.20821 4.22721 7.45544C3.89463 7.70268 3.48716 7.83668 3.06799 7.83668C2.64882 7.83668 2.24135 7.70268 1.90877 7.45544C1.57619 7.20821 1.33707 6.86156 1.2285 6.46924H0.487498C0.358206 6.46924 0.234209 6.41947 0.142785 6.33088C0.0513612 6.24229 0 6.12214 0 5.99685C0 5.87157 0.0513612 5.75141 0.142785 5.66282C0.234209 5.57423 0.358206 5.52446 0.487498 5.52446H1.2285C1.33707 5.13214 1.57619 4.78549 1.90877 4.53826C2.24135 4.29103 2.64882 4.15702 3.06799 4.15702C3.48716 4.15702 3.89463 4.29103 4.22721 4.53826C4.55979 4.78549 4.79891 5.13214 4.90748 5.52446H12.5125C12.6417 5.52446 12.7657 5.57423 12.8572 5.66282C12.9486 5.75141 13 5.87157 13 5.99685Z" fill="#C7C5FF"/>
</svg>
