<svg width="13" height="13" viewBox="0 0 13 13" fill="none" xmlns="http://www.w3.org/2000/svg">
<path d="M8.12498 7.04164C7.82545 7.04164 7.58335 7.28435 7.58335 7.58327V9.75C7.58335 10.0484 7.34064 10.2916 7.04162 10.2916H5.41662V2.16665C5.41662 1.70406 5.12196 1.29078 4.6789 1.13694L4.51853 1.08329H7.04162C7.34064 1.08329 7.58335 1.32648 7.58335 1.62502V3.25002C7.58335 3.54894 7.82545 3.79165 8.12498 3.79165C8.42451 3.79165 8.66661 3.54894 8.66661 3.25002V1.62502C8.66661 0.729115 7.93752 2.53906e-05 7.04162 2.53906e-05H1.21875C1.19813 2.53906e-05 1.18086 0.00924217 1.16083 0.0119336C1.13473 0.00974998 1.10985 0 1.08336 0C0.485899 2.53906e-05 0 0.485848 0 1.08331V10.8333C0 11.2959 0.294657 11.7092 0.737723 11.863L3.99749 12.9496C4.10623 12.9833 4.21948 13.0003 4.33333 13C4.9308 13 5.41659 12.5141 5.41659 11.9166V11.375H7.04159C7.9375 11.375 8.66659 10.6459 8.66659 9.75V7.58327C8.66659 7.28435 8.42449 7.04164 8.12496 7.04164H8.12498Z" fill="#FF4040"/>
<path d="M12.8431 5.03462L10.6762 2.86782C10.6005 2.79201 10.5039 2.74037 10.3988 2.71943C10.2938 2.69849 10.1848 2.70919 10.0858 2.75018C9.88376 2.8342 9.75154 3.03188 9.75154 3.25079V4.87591H7.58474C7.2857 4.87591 7.04297 5.11854 7.04297 5.41759C7.04297 5.71664 7.2857 5.95926 7.58474 5.95926H9.75154V7.58438C9.75154 7.80329 9.88376 8.00097 10.0858 8.085C10.1848 8.12598 10.2937 8.13668 10.3988 8.11576C10.5039 8.09483 10.6004 8.04321 10.6762 7.96743L12.8431 5.80056C13.0549 5.58878 13.0549 5.24639 12.8431 5.03462Z" fill="#FF4040"/>
</svg>
