<svg width="14" height="9" viewBox="0 0 14 9" fill="none" xmlns="http://www.w3.org/2000/svg">
<path d="M12.4059 5.14286H4.60586C4.21586 5.14286 3.95586 4.88571 3.95586 4.5C3.95586 4.11429 4.21586 3.85714 4.60586 3.85714H12.4059C12.7959 3.85714 13.0559 4.11429 13.0559 4.5C13.0559 4.88571 12.7959 5.14286 12.4059 5.14286ZM12.4559 9H8.55586C8.16586 9 7.90586 8.74286 7.90586 8.35714C7.90586 7.97143 8.16586 7.71429 8.55586 7.71429H12.4559C12.8459 7.71429 13.1059 7.97143 13.1059 8.35714C13.1059 8.74286 12.8459 9 12.4559 9ZM12.3559 1.28571H0.655859C0.265859 1.28571 0.00585938 1.02857 0.00585938 0.642857C0.00585938 0.257143 0.265859 0 0.655859 0H12.3559C12.7459 0 13.0059 0.257143 13.0059 0.642857C13.0059 1.02857 12.7459 1.28571 12.3559 1.28571Z" fill="#C6C5FF" fill-opacity="0.58"/>
</svg>
