<svg width="14" height="9" viewBox="0 0 14 9" fill="none" xmlns="http://www.w3.org/2000/svg">
<path d="M12.4 3.85714L4.6 3.85714C4.21 3.85714 3.95 4.11429 3.95 4.5C3.95 4.88571 4.21 5.14286 4.6 5.14286L12.4 5.14286C12.79 5.14286 13.05 4.88571 13.05 4.5C13.05 4.11428 12.79 3.85714 12.4 3.85714ZM12.45 -1.08841e-06L8.55 -7.47465e-07C8.16 -7.1337e-07 7.9 0.257142 7.9 0.642857C7.9 1.02857 8.16 1.28571 8.55 1.28571L12.45 1.28571C12.84 1.28571 13.1 1.02857 13.1 0.642856C13.1 0.257142 12.84 -1.12251e-06 12.45 -1.08841e-06ZM12.35 7.71428L0.65 7.71429C0.26 7.71429 -8.99206e-08 7.97143 -5.62004e-08 8.35714C-2.24801e-08 8.74286 0.26 9 0.65 9L12.35 9C12.74 9 13 8.74286 13 8.35714C13 7.97143 12.74 7.71428 12.35 7.71428Z" fill="#C6C5FF" fill-opacity="0.58"/>
</svg>
