<svg width="11" height="10" viewBox="0 0 11 10" fill="none" xmlns="http://www.w3.org/2000/svg">
<path d="M10.8839 4.16074L8.47335 6.40239L9.04262 9.56847C9.05481 9.63637 9.04685 9.70616 9.01964 9.76996C8.99243 9.83376 8.94704 9.88903 8.88862 9.92951C8.8302 9.97 8.76108 9.99408 8.68906 9.99904C8.61704 10.004 8.545 9.98964 8.48109 9.95759L5.50044 8.46278L2.52018 9.95722C2.45627 9.98927 2.38423 10.0036 2.31222 9.99867C2.2402 9.99371 2.17107 9.96963 2.11265 9.92914C2.05423 9.88866 2.00885 9.8334 1.98163 9.76959C1.95442 9.70579 1.94646 9.636 1.95865 9.5681L2.52792 6.40203L0.116935 4.16074C0.065185 4.11264 0.0285829 4.05168 0.011272 3.98477C-0.00603887 3.91785 -0.00336722 3.84765 0.0189846 3.7821C0.0413363 3.71656 0.0824756 3.65829 0.137745 3.6139C0.193015 3.56951 0.260208 3.54077 0.331718 3.53092L3.66337 3.06945L5.15331 0.189112C5.28372 -0.0630373 5.71716 -0.0630373 5.84758 0.189112L7.33751 3.06945L10.6692 3.53092C10.7405 3.54102 10.8075 3.56991 10.8626 3.61433C10.9177 3.65876 10.9587 3.71696 10.981 3.78239C11.0033 3.84782 11.006 3.9179 10.9889 3.98473C10.9718 4.05157 10.9354 4.11252 10.8839 4.16074Z" fill="#8D91CE"/>
</svg>
