<svg width="20" height="20" viewBox="0 0 20 20" fill="none" xmlns="http://www.w3.org/2000/svg">
<path d="M9.98247 0C4.72199 0 0.408248 4.05 0 9.1975L5.36984 11.4125C5.84048 11.0925 6.39666 10.9212 6.9661 10.9208C7.01842 10.9214 7.07074 10.9231 7.12306 10.9258L9.5116 7.47417V7.425C9.51293 6.42554 9.91128 5.46739 10.6193 4.76067C11.3273 4.05394 12.2872 3.65632 13.2885 3.655C15.3707 3.655 17.0655 5.3475 17.0655 7.4275C17.0655 9.5075 15.3707 11.1983 13.2885 11.1983H13.2009L9.79796 13.6242L9.8013 13.7567C9.80196 14.1281 9.72924 14.496 9.58731 14.8393C9.44537 15.1826 9.237 15.4946 8.97413 15.7575C8.71126 16.0203 8.39904 16.2289 8.05534 16.3711C7.71164 16.5134 7.3432 16.5867 6.97111 16.5867C6.31648 16.5848 5.68251 16.3577 5.17598 15.9438C4.66944 15.5299 4.3213 14.9544 4.19018 14.3142L0.345634 12.725C1.53615 16.9225 5.39656 20 9.98247 20C15.5151 20 20 15.5225 20 10C20 4.4775 15.5143 0 9.98247 0ZM6.27651 15.175L5.04675 14.6667C5.26549 15.1192 5.64285 15.4992 6.14376 15.7083C6.53229 15.869 6.95978 15.9113 7.37234 15.8298C7.7849 15.7484 8.16406 15.5468 8.46202 15.2505C8.75998 14.9543 8.9634 14.5766 9.04663 14.1651C9.12986 13.7536 9.08917 13.3268 8.9297 12.9383C8.71912 12.4278 8.31755 12.0193 7.8102 11.7995C7.30285 11.5797 6.72965 11.5658 6.21222 11.7608L7.48372 12.2858C7.86755 12.4455 8.17211 12.7509 8.3304 13.1347C8.48869 13.5185 8.48774 13.9494 8.32777 14.3325C8.16779 14.7156 7.86189 15.0196 7.47736 15.1776C7.09283 15.3356 6.66034 15.3347 6.27651 15.175ZM15.8065 7.4225C15.8054 6.75648 15.5398 6.11806 15.068 5.64711C14.5962 5.17616 13.9566 4.9111 13.2894 4.91C12.7915 4.91 12.3049 5.05736 11.8909 5.33343C11.477 5.60951 11.1544 6.00191 10.9639 6.46101C10.7733 6.92011 10.7235 7.42529 10.8206 7.91266C10.9177 8.40004 11.1575 8.84773 11.5095 9.19911C11.8615 9.55048 12.31 9.78978 12.7983 9.88672C13.2866 9.98367 13.7927 9.93391 14.2526 9.74375C14.7126 9.55358 15.1057 9.23155 15.3823 8.81837C15.6589 8.40519 15.8065 7.91943 15.8065 7.4225ZM11.4042 7.41833C11.4042 6.91763 11.6035 6.43743 11.9582 6.08337C12.3129 5.72932 12.794 5.53042 13.2956 5.53042C13.7973 5.53042 14.2783 5.72932 14.633 6.08337C14.9877 6.43743 15.187 6.91763 15.187 7.41833C15.1866 7.91894 14.9871 8.3989 14.6324 8.7528C14.2777 9.10671 13.7967 9.30561 13.2952 9.30583C13.0469 9.30594 12.8009 9.2572 12.5714 9.16238C12.342 9.06756 12.1335 8.92853 11.9578 8.75324C11.7822 8.57795 11.6429 8.36983 11.548 8.14078C11.453 7.91173 11.4041 7.66623 11.4042 7.41833Z" fill="white"/>
</svg>
