<svg width="87" height="87" viewBox="0 0 87 87" fill="none" xmlns="http://www.w3.org/2000/svg">
<path d="M40.75 3.31934C42.3454 2.39829 44.288 2.34136 45.9268 3.14746L46.25 3.31934L76.9219 21.0283C78.6235 22.0107 79.6717 23.8262 79.6719 25.791V61.209C79.6717 63.1738 78.6235 64.9893 76.9219 65.9717L46.25 83.6807C44.5484 84.663 42.4516 84.663 40.75 83.6807L10.0781 65.9717C8.37655 64.9893 7.32828 63.1738 7.32812 61.209V25.791C7.32827 23.9489 8.24926 22.2378 9.7666 21.2217L10.0781 21.0283L40.75 3.31934Z" fill="#181C2A" stroke="url(#paint0_linear_4066_10)" stroke-width="3"/>
<g filter="url(#filter0_d_4066_10)">
<path fill-rule="evenodd" clip-rule="evenodd" d="M40.2858 43.9999V55.1429C40.2858 55.6355 40.4814 56.1078 40.8297 56.4561C41.1779 56.8043 41.6503 57 42.1428 57H45.8572C46.3497 57 46.822 56.8043 47.1703 56.4561C47.5186 56.1078 47.7142 55.6355 47.7142 55.1429V43.9999C47.7142 43.5074 47.5186 43.035 47.1703 42.6867C46.822 42.3385 46.3497 42.1428 45.8572 42.1428H42.1428C41.6503 42.1428 41.1779 42.3385 40.8297 42.6867C40.4814 43.035 40.2858 43.5074 40.2858 43.9999ZM57 36.5714C57.0001 36.3275 56.9521 36.086 56.8588 35.8606C56.7655 35.6353 56.6287 35.4305 56.4563 35.2581C56.2838 35.0856 56.0791 34.9488 55.8537 34.8555C55.6284 34.7622 55.3868 34.7143 55.1429 34.7143H51.4286C50.9361 34.7144 50.4638 34.9101 50.1155 35.2583C49.7673 35.6066 49.5716 36.0789 49.5715 36.5714V55.1429C49.5716 55.6354 49.7673 56.1077 50.1156 56.4559C50.4638 56.8042 50.9361 56.9999 51.4286 57H55.1429C55.3868 57.0001 55.6284 56.9521 55.8537 56.8588C56.0791 56.7655 56.2838 56.6287 56.4563 56.4563C56.6287 56.2838 56.7655 56.0791 56.8588 55.8537C56.9521 55.6284 57.0001 55.3868 57 55.1429V36.5714ZM31 40.2858V55.1429C30.9999 55.3869 31.0479 55.6284 31.1412 55.8538C31.2345 56.0791 31.3713 56.2839 31.5438 56.4564C31.7163 56.6288 31.9211 56.7656 32.1464 56.8589C32.3718 56.9522 32.6134 57.0001 32.8573 57H36.5714C37.064 57 37.5363 56.8044 37.8846 56.4561C38.2329 56.1078 38.4286 55.6355 38.4287 55.1429V40.2858C38.4286 39.7932 38.2329 39.3209 37.8846 38.9726C37.5363 38.6243 37.064 38.4287 36.5714 38.4287H32.8573C32.3647 38.4287 31.8924 38.6243 31.5441 38.9726C31.1958 39.3209 31.0001 39.7932 31 40.2858ZM43.0715 31.9164C42.4905 32.061 41.9973 32.3621 41.6648 32.8098C41.3911 33.1784 41.2144 33.6524 41.2144 34.2564C41.2144 35.4533 42.0412 36.0606 43.1903 36.3958C43.6065 36.5173 44.065 36.606 44.4645 36.7399C44.5878 36.7811 44.7041 36.8259 44.8048 36.8841C44.8675 36.9202 44.9285 36.9587 44.9285 37.0421C44.9285 37.412 44.6484 37.5542 44.3402 37.5957C43.7808 37.6712 43.1098 37.5027 42.6623 37.2008C42.4581 37.0632 42.2076 37.0123 41.9659 37.0593C41.7241 37.1062 41.5109 37.2472 41.3731 37.4512C41.2356 37.6555 41.1847 37.9059 41.2317 38.1476C41.2787 38.3892 41.4196 38.6024 41.6236 38.7403C42.0292 39.0139 42.5377 39.2218 43.0715 39.3422V39.3571C43.0715 39.8697 43.4875 40.2858 44.0001 40.2858C44.2439 40.2856 44.4779 40.1895 44.6516 40.0184C44.8253 39.8473 44.9247 39.6147 44.9285 39.3709C45.0273 39.3478 45.1231 39.3198 45.2158 39.2871C46.1271 38.9651 46.7858 38.2627 46.7858 37.0421C46.7858 35.8451 45.9588 35.2378 44.8097 34.9027C44.3935 34.7812 43.935 34.6923 43.5355 34.5583C43.4122 34.5171 43.2961 34.4723 43.1954 34.4142C43.1325 34.3781 43.0715 34.3395 43.0715 34.2564C43.0715 33.8826 43.3529 33.7344 43.6643 33.691C44.2181 33.6137 44.8824 33.7795 45.3254 34.089C45.7455 34.3825 46.325 34.2796 46.6185 33.8595C46.912 33.4394 46.809 32.86 46.3889 32.5665C45.9802 32.281 45.4665 32.0635 44.9285 31.9382V31.9286C44.9285 31.4161 44.5125 31 44.0001 31C43.756 31.0002 43.5217 31.0964 43.3479 31.2678C43.1742 31.4393 43.0749 31.6723 43.0715 31.9164Z" fill="#00F5B0"/>
</g>
<defs>
<filter id="filter0_d_4066_10" x="12.5" y="16.5" width="63" height="63" filterUnits="userSpaceOnUse" color-interpolation-filters="sRGB">
<feFlood flood-opacity="0" result="BackgroundImageFix"/>
<feColorMatrix in="SourceAlpha" type="matrix" values="0 0 0 0 0 0 0 0 0 0 0 0 0 0 0 0 0 0 127 0" result="hardAlpha"/>
<feOffset dy="4"/>
<feGaussianBlur stdDeviation="9.25"/>
<feComposite in2="hardAlpha" operator="out"/>
<feColorMatrix type="matrix" values="0 0 0 0 0 0 0 0 0 0.960784 0 0 0 0 0.690196 0 0 0 0.38 0"/>
<feBlend mode="normal" in2="BackgroundImageFix" result="effect1_dropShadow_4066_10"/>
<feBlend mode="normal" in="SourceGraphic" in2="effect1_dropShadow_4066_10" result="shape"/>
</filter>
<linearGradient id="paint0_linear_4066_10" x1="43.5" y1="0" x2="43.5" y2="87" gradientUnits="userSpaceOnUse">
<stop stop-color="#064341"/>
<stop offset="1" stop-color="#1FE1B6"/>
</linearGradient>
</defs>
</svg>
