<svg width="87" height="87" viewBox="0 0 87 87" fill="none" xmlns="http://www.w3.org/2000/svg">
<path d="M40.75 3.31934C42.3454 2.39829 44.288 2.34136 45.9268 3.14746L46.25 3.31934L76.9219 21.0283C78.6235 22.0107 79.6717 23.8262 79.6719 25.791V61.209C79.6717 63.0511 78.7507 64.7622 77.2334 65.7783L76.9219 65.9717L46.25 83.6807C44.6546 84.6017 42.712 84.6586 41.0732 83.8525L40.75 83.6807L10.0781 65.9717C8.37655 64.9893 7.32828 63.1738 7.32812 61.209V25.791C7.32827 23.9489 8.24926 22.2378 9.7666 21.2217L10.0781 21.0283L40.75 3.31934Z" fill="#171A27" stroke="url(#paint0_linear_4066_11)" stroke-width="3"/>
<g filter="url(#filter0_d_4066_11)">
<path d="M59.223 42.1142L57.0405 39.9321C56.5225 39.4141 56.098 38.3905 56.098 37.6565V34.5705C56.098 33.1025 54.8987 31.9033 53.4311 31.9025H50.3438C49.6106 31.9025 48.5858 31.4772 48.0677 30.9597L45.8856 28.7776C44.8488 27.7408 43.1511 27.7408 42.1143 28.7776L39.9322 30.9612C39.4137 31.4792 38.3878 31.9033 37.6561 31.9033H34.5701C33.104 31.9033 31.9032 33.1025 31.9032 34.5705V37.6565C31.9032 38.3877 31.4788 39.4145 30.9607 39.9322L28.7782 42.1143C27.7406 43.1511 27.7406 44.8487 28.7782 45.8871L30.9607 48.0692C31.4791 48.5871 31.9032 49.6136 31.9032 50.3448V53.4309C31.9032 54.8973 33.104 56.0981 34.5701 56.0981H37.6562C38.3894 56.0981 39.4142 56.5225 39.9323 57.0401L42.1144 59.223C43.1512 60.259 44.8489 60.259 45.8857 59.223L48.0678 57.0401C48.5863 56.5222 49.6107 56.0981 50.3439 56.0981H53.4312C54.8988 56.0981 56.0981 54.8973 56.0981 53.4309V50.3448C56.0981 49.6104 56.5229 48.5868 57.0405 48.0692L59.223 45.8871C60.259 44.8487 60.259 43.151 59.223 42.1142ZM41.8831 50.0003L35.9993 44.1158L37.885 42.2306L41.8836 46.2291L50.1147 38.0001L51.9999 39.8854L41.8831 50.0003Z" fill="#EB1547"/>
</g>
<defs>
<filter id="filter0_d_4066_11" x="4.2" y="7.2" width="79.6" height="79.6" filterUnits="userSpaceOnUse" color-interpolation-filters="sRGB">
<feFlood flood-opacity="0" result="BackgroundImageFix"/>
<feColorMatrix in="SourceAlpha" type="matrix" values="0 0 0 0 0 0 0 0 0 0 0 0 0 0 0 0 0 0 127 0" result="hardAlpha"/>
<feOffset dy="3"/>
<feGaussianBlur stdDeviation="11.9"/>
<feComposite in2="hardAlpha" operator="out"/>
<feColorMatrix type="matrix" values="0 0 0 0 0.921569 0 0 0 0 0.0823529 0 0 0 0 0.278431 0 0 0 0.57 0"/>
<feBlend mode="normal" in2="BackgroundImageFix" result="effect1_dropShadow_4066_11"/>
<feBlend mode="normal" in="SourceGraphic" in2="effect1_dropShadow_4066_11" result="shape"/>
</filter>
<linearGradient id="paint0_linear_4066_11" x1="43.5" y1="0" x2="43.5" y2="87" gradientUnits="userSpaceOnUse">
<stop stop-color="#551435"/>
<stop offset="1" stop-color="#E31C58"/>
</linearGradient>
</defs>
</svg>
