<svg width="87" height="87" viewBox="0 0 87 87" fill="none" xmlns="http://www.w3.org/2000/svg">
<path d="M40.75 3.31934C42.3454 2.39829 44.288 2.34136 45.9268 3.14746L46.25 3.31934L76.9219 21.0283C78.6235 22.0107 79.6717 23.8262 79.6719 25.791V61.209C79.6717 63.1738 78.6235 64.9893 76.9219 65.9717L46.25 83.6807C44.5484 84.663 42.4516 84.663 40.75 83.6807L10.0781 65.9717C8.37655 64.9893 7.32828 63.1738 7.32812 61.209V25.791C7.32827 23.9489 8.24926 22.2378 9.7666 21.2217L10.0781 21.0283L40.75 3.31934Z" fill="#171A27" stroke="url(#paint0_linear_4066_9)" stroke-width="3"/>
<g filter="url(#filter0_d_4066_9)">
<path d="M43.5083 36.8774C43.9707 37.0741 44.4209 37.2981 44.8566 37.5482C45.1926 37.5733 45.66 37.5524 45.6598 37.1033L45.6406 28.4435C45.64 28.1597 45.3782 27.9493 45.1026 28.0107C41.0204 28.9204 37.7608 32.027 36.6133 36.0333C38.9311 35.665 41.3553 35.9552 43.5083 36.8774ZM38.569 37.7696C25.8917 37.6841 24.0173 56.5259 36.2355 59.1303C36.4467 59.1778 36.6483 59.0175 36.6478 58.7993L36.6293 50.4879C36.6289 50.3011 36.4782 50.1499 36.2924 50.1499H35.1496C34.7819 50.1499 34.5599 49.741 34.7587 49.4302C39.8171 42.0076 37.3614 42.0098 42.4207 49.4301C42.6196 49.741 42.3976 50.1499 42.03 50.1499H40.7391C40.5527 50.1499 40.4018 50.302 40.4022 50.4893L40.4207 58.8248C40.4212 59.0386 40.6165 59.2004 40.8246 59.1562C53.1734 56.6579 51.3271 37.6605 38.569 37.7696Z" fill="#E015E4"/>
<path d="M58.9984 39.0371C58.9174 33.678 55.1822 29.2098 50.1869 28.0386C49.9099 27.9736 49.645 28.1866 49.6457 28.4725L49.6649 37.1056C49.6654 37.3503 49.8629 37.5485 50.1064 37.5485H51.3307C51.6801 37.5485 51.8911 37.9371 51.7021 38.2325L49.3467 41.915C50.8466 44.342 51.481 47.2795 51.1316 50.1188C55.7397 48.5919 59.0761 44.1817 58.9984 39.0371Z" fill="#E015E4"/>
</g>
<defs>
<filter id="filter0_d_4066_9" x="8.5" y="6.5" width="70" height="70.1636" filterUnits="userSpaceOnUse" color-interpolation-filters="sRGB">
<feFlood flood-opacity="0" result="BackgroundImageFix"/>
<feColorMatrix in="SourceAlpha" type="matrix" values="0 0 0 0 0 0 0 0 0 0 0 0 0 0 0 0 0 0 127 0" result="hardAlpha"/>
<feOffset dy="-2"/>
<feGaussianBlur stdDeviation="9.75"/>
<feComposite in2="hardAlpha" operator="out"/>
<feColorMatrix type="matrix" values="0 0 0 0 0.878431 0 0 0 0 0.0823529 0 0 0 0 0.894118 0 0 0 0.59 0"/>
<feBlend mode="normal" in2="BackgroundImageFix" result="effect1_dropShadow_4066_9"/>
<feBlend mode="normal" in="SourceGraphic" in2="effect1_dropShadow_4066_9" result="shape"/>
</filter>
<linearGradient id="paint0_linear_4066_9" x1="43.5" y1="0" x2="43.5" y2="87" gradientUnits="userSpaceOnUse">
<stop stop-color="#4B1D58"/>
<stop offset="1" stop-color="#E642F1"/>
</linearGradient>
</defs>
</svg>
