<svg width="15" height="11" viewBox="0 0 15 11" fill="none" xmlns="http://www.w3.org/2000/svg">
<path d="M15 3.49853C15.0004 3.56434 14.9878 3.62958 14.9629 3.69051C14.938 3.75144 14.9013 3.80686 14.855 3.85359L11.855 6.85412C11.8083 6.90047 11.7529 6.93714 11.6919 6.96203C11.631 6.98692 11.5658 6.99953 11.5 6.99915C11.435 6.99995 11.3705 6.98806 11.31 6.96414C11.2179 6.9263 11.1392 6.86182 11.084 6.77896C11.0287 6.69611 10.9995 6.59864 11 6.49906V4.99879H6.5C6.36739 4.99879 6.24022 4.94611 6.14645 4.85232C6.05268 4.75854 6 4.63134 6 4.4987V2.49835C6 2.36572 6.05268 2.23852 6.14645 2.14473C6.24022 2.05095 6.36739 1.99826 6.5 1.99826H11V0.497992C11.0004 0.399088 11.0301 0.302528 11.0854 0.220522C11.1407 0.138516 11.2191 0.0747458 11.3106 0.0372764C11.4021 -0.000193094 11.5027 -0.00967939 11.5996 0.0100167C11.6965 0.0297128 11.7854 0.0777069 11.855 0.14793L14.855 3.14846C14.9474 3.24161 14.9994 3.36733 15 3.49853ZM8.5 5.99897H4V4.4987C3.99951 4.39997 3.96981 4.3036 3.91464 4.22172C3.85948 4.13985 3.78131 4.07614 3.69 4.03862C3.59895 4.00033 3.49859 3.98986 3.4016 4.00855C3.3046 4.02724 3.21532 4.07425 3.145 4.14364L0.145008 7.14418C0.0986675 7.1909 0.062005 7.24632 0.0371227 7.30725C0.0122404 7.36818 -0.000372089 7.43342 8.35714e-06 7.49924C-0.000372089 7.56505 0.0122404 7.6303 0.0371227 7.69123C0.062005 7.75216 0.0986675 7.80757 0.145008 7.8543L3.145 10.8548C3.19172 10.9012 3.24713 10.9379 3.30805 10.9627C3.36897 10.9876 3.4342 11.0002 3.5 10.9999C3.56559 11.0016 3.63066 10.9879 3.69 10.9599C3.78131 10.9223 3.85948 10.8586 3.91464 10.7768C3.96981 10.6949 3.99951 10.5985 4 10.4998V8.99951H8.5C8.63261 8.99951 8.75978 8.94682 8.85355 8.85303C8.94732 8.75925 9 8.63205 9 8.49942V6.49906C9 6.36643 8.94732 6.23923 8.85355 6.14544C8.75978 6.05166 8.63261 5.99897 8.5 5.99897Z" fill="#757598"/>
</svg>
