<svg width="25" height="25" viewBox="0 0 25 25" fill="none" xmlns="http://www.w3.org/2000/svg">
<path d="M23.75 3.75H1.25C0.918479 3.75 0.600537 3.8817 0.366116 4.11612C0.131696 4.35054 0 4.66848 0 5C0 5.33152 0.131696 5.64946 0.366116 5.88388C0.600537 6.1183 0.918479 6.25 1.25 6.25H3.75V21.25C3.75 22.2446 4.14509 23.1984 4.84835 23.9017C5.55161 24.6049 6.50544 25 7.5 25H17.5C18.4946 25 19.4484 24.6049 20.1517 23.9017C20.8549 23.1984 21.25 22.2446 21.25 21.25V6.25H23.75C24.0815 6.25 24.3995 6.1183 24.6339 5.88388C24.8683 5.64946 25 5.33152 25 5C25 4.66848 24.8683 4.35054 24.6339 4.11612C24.3995 3.8817 24.0815 3.75 23.75 3.75ZM11.25 17.5C11.25 17.8315 11.1183 18.1495 10.8839 18.3839C10.6495 18.6183 10.3315 18.75 10 18.75C9.66848 18.75 9.35054 18.6183 9.11612 18.3839C8.8817 18.1495 8.75 17.8315 8.75 17.5V11.25C8.75 10.9185 8.8817 10.6005 9.11612 10.3661C9.35054 10.1317 9.66848 10 10 10C10.3315 10 10.6495 10.1317 10.8839 10.3661C11.1183 10.6005 11.25 10.9185 11.25 11.25V17.5ZM16.25 17.5C16.25 17.8315 16.1183 18.1495 15.8839 18.3839C15.6495 18.6183 15.3315 18.75 15 18.75C14.6685 18.75 14.3505 18.6183 14.1161 18.3839C13.8817 18.1495 13.75 17.8315 13.75 17.5V11.25C13.75 10.9185 13.8817 10.6005 14.1161 10.3661C14.3505 10.1317 14.6685 10 15 10C15.3315 10 15.6495 10.1317 15.8839 10.3661C16.1183 10.6005 16.25 10.9185 16.25 11.25V17.5ZM10 2.5H15C15.3315 2.5 15.6495 2.3683 15.8839 2.13388C16.1183 1.89946 16.25 1.58152 16.25 1.25C16.25 0.918479 16.1183 0.600537 15.8839 0.366116C15.6495 0.131696 15.3315 0 15 0H10C9.66848 0 9.35054 0.131696 9.11612 0.366116C8.8817 0.600537 8.75 0.918479 8.75 1.25C8.75 1.58152 8.8817 1.89946 9.11612 2.13388C9.35054 2.3683 9.66848 2.5 10 2.5Z" fill="#9B98FF"/>
</svg>
