<svg width="9" height="12" viewBox="0 0 9 12" fill="none" xmlns="http://www.w3.org/2000/svg">
<path d="M8.1446 5.72283V3.69356C8.1446 1.65679 6.51018 0 4.5 0C2.48982 0 0.855402 1.65638 0.855402 3.69356V3.84962H2.29271V3.69356C2.29271 2.46001 3.2824 1.45661 4.5 1.45661C5.7176 1.45661 6.70729 2.4596 6.70729 3.69356V5.72283H0V12H9V5.72283H8.1446ZM5.43302 10.5596H3.56657L4.0684 9.0335C3.90558 8.95244 3.76835 8.82688 3.67221 8.67098C3.57606 8.51508 3.52482 8.33505 3.52427 8.15121C3.52427 7.88907 3.62703 7.63766 3.80994 7.45229C3.99284 7.26693 4.24092 7.16279 4.49959 7.16279C4.75826 7.16279 5.00633 7.26693 5.18924 7.45229C5.37215 7.63766 5.4749 7.88907 5.4749 8.15121C5.4749 8.53909 5.25233 8.87119 4.93119 9.0335L5.43302 10.5596Z" fill="#9290C4"/>
</svg>
