<svg width="9" height="11" viewBox="0 0 9 11" fill="none" xmlns="http://www.w3.org/2000/svg">
<path d="M4.43195 5.29871C5.14581 5.29871 5.76398 5.03762 6.26907 4.52249C6.77417 4.00747 7.0302 3.3773 7.0302 2.64928C7.0302 1.92148 6.77417 1.29124 6.26899 0.776031C5.76381 0.261076 5.14573 0 4.43195 0C3.71798 0 3.09995 0.261076 2.59488 0.776117C2.08981 1.29116 1.83367 1.92142 1.83367 2.64928C1.83367 3.3773 2.08979 4.00756 2.59497 4.5226C3.10014 5.03755 3.71823 5.29871 4.43195 5.29871ZM8.97819 8.4584C8.96361 8.24407 8.93416 8.01024 8.89078 7.76336C8.847 7.51459 8.79064 7.27945 8.72313 7.06452C8.65343 6.84238 8.55862 6.62302 8.44143 6.41278C8.31978 6.19458 8.17691 6.00458 8.01657 5.84824C7.84893 5.68468 7.64367 5.55317 7.40631 5.45722C7.16978 5.36183 6.90764 5.3135 6.62725 5.3135C6.51712 5.3135 6.41064 5.35956 6.20496 5.49611C6.05876 5.59319 5.91212 5.68958 5.76506 5.78529C5.62375 5.87711 5.43231 5.96313 5.19585 6.04101C4.96517 6.11713 4.73094 6.15574 4.49975 6.15574C4.26858 6.15574 4.03441 6.11713 3.80347 6.04101C3.56729 5.9632 3.37585 5.8772 3.23469 5.78537C3.08751 5.68957 2.94074 5.59311 2.79439 5.496C2.58896 5.35947 2.48237 5.31339 2.37227 5.31339C2.09177 5.31339 1.82973 5.36181 1.59327 5.45733C1.35608 5.55309 1.15074 5.68459 0.982922 5.84832C0.82269 6.00475 0.679736 6.19465 0.558251 6.41278C0.441149 6.623 0.346337 6.84229 0.276535 7.06461C0.209114 7.27954 0.152753 7.51459 0.108972 7.76336C0.0655903 8.00991 0.0361355 8.24381 0.0215557 8.45865C0.00705507 8.67486 -0.000133794 8.8915 1.885e-06 9.10821C1.885e-06 9.68242 0.179006 10.1472 0.531999 10.4901C0.880631 10.8284 1.34192 11 1.90289 11H7.09712C7.65808 11 8.1192 10.8285 8.46792 10.4901C8.821 10.1475 9 9.68259 9 9.10812C8.99992 8.88649 8.9926 8.66787 8.97819 8.4584Z" fill="#757598"/>
</svg>
