<svg width="21" height="14" viewBox="0 0 21 14" fill="none" xmlns="http://www.w3.org/2000/svg">
<path d="M10.8296 4.2295C10.0955 4.2295 9.39149 4.51463 8.87241 5.02218C8.35332 5.52972 8.06171 6.2181 8.06171 6.93588C8.06171 7.65366 8.35332 8.34204 8.87241 8.84958C9.39149 9.35713 10.0955 9.64226 10.8296 9.64226C11.5637 9.64226 12.2677 9.35713 12.7868 8.84958C13.3059 8.34204 13.5975 7.65366 13.5975 6.93588C13.5975 6.2181 13.3059 5.52972 12.7868 5.02218C12.2677 4.51463 11.5637 4.2295 10.8296 4.2295ZM10.8296 11.4465C9.60612 11.4465 8.43274 10.9713 7.56761 10.1254C6.70247 9.27947 6.21645 8.13217 6.21645 6.93588C6.21645 5.73958 6.70247 4.59229 7.56761 3.74638C8.43274 2.90047 9.60612 2.42524 10.8296 2.42524C12.0531 2.42524 13.2265 2.90047 14.0916 3.74638C14.9567 4.59229 15.4428 5.73958 15.4428 6.93588C15.4428 8.13217 14.9567 9.27947 14.0916 10.1254C13.2265 10.9713 12.0531 11.4465 10.8296 11.4465ZM10.8296 0.169922C6.21645 0.169922 2.27681 2.97554 0.680664 6.93588C2.27681 10.8962 6.21645 13.7018 10.8296 13.7018C15.4428 13.7018 19.3824 10.8962 20.9785 6.93588C19.3824 2.97554 15.4428 0.169922 10.8296 0.169922Z" fill="#9882E0"/>
</svg>
