<svg width="11" height="11" viewBox="0 0 11 11" fill="none" xmlns="http://www.w3.org/2000/svg">
<path d="M10.1979 0H0.802083C0.359792 0 0 0.359792 0 0.802083V1.94792C0 2.39021 0.359792 2.75 0.802083 2.75H10.1979C10.6402 2.75 11 2.39021 11 1.94792V0.802083C11 0.359792 10.6402 0 10.1979 0ZM0.802083 11H4.23958C4.68188 11 5.04167 10.6402 5.04167 10.1979V4.46875C5.04167 4.02646 4.68188 3.66667 4.23958 3.66667H0.802083C0.359792 3.66667 0 4.02646 0 4.46875V10.1979C0 10.6402 0.359792 11 0.802083 11ZM10.1979 3.66667H6.76042C6.31813 3.66667 5.95833 4.02646 5.95833 4.46875V6.07292C5.95833 6.51521 6.31813 6.875 6.76042 6.875H10.1979C10.6402 6.875 11 6.51521 11 6.07292V4.46875C11 4.02646 10.6402 3.66667 10.1979 3.66667ZM10.1979 7.79167H6.76042C6.31813 7.79167 5.95833 8.15146 5.95833 8.59375V10.1979C5.95833 10.6402 6.31813 11 6.76042 11H10.1979C10.6402 11 11 10.6402 11 10.1979V8.59375C11 8.15146 10.6402 7.79167 10.1979 7.79167Z" fill="#9882E0"/>
</svg>
