<svg width="24" height="24" viewBox="0 0 24 24" fill="none" xmlns="http://www.w3.org/2000/svg">
<path d="M16.5678 12H7.40111M16.5678 12L12.9011 15.6667M16.5678 12L12.9011 8.33332M20.9715 2.63821L21.3618 3.02848C22.4107 4.0774 23 5.50004 23 6.98344V17.0166C23 18.5 22.4107 19.9226 21.3618 20.9715L20.9715 21.3618C19.9226 22.4107 18.5 23 17.0166 23H6.98344C5.50004 23 4.0774 22.4107 3.02847 21.3618L2.63821 20.9715C1.58929 19.9226 1.00001 18.5 1 17.0166V6.98344C1.00001 5.50004 1.58929 4.0774 2.63821 3.02848L3.02847 2.63821C4.0774 1.58929 5.50004 1.00001 6.98344 1H17.0166C18.5 1.00001 19.9226 1.58929 20.9715 2.63821Z" stroke="#F329F1" stroke-width="1.7" stroke-miterlimit="10" stroke-linecap="round" stroke-linejoin="round"/>
</svg>
