<svg width="13" height="13" viewBox="0 0 13 13" fill="none" xmlns="http://www.w3.org/2000/svg">
<path d="M12.655 4.6468L8.65839 4.0354L6.86703 0.214017C6.73324 -0.071339 6.26576 -0.071339 6.13196 0.214017L4.34115 4.0354L0.344577 4.6468C0.270787 4.65815 0.201547 4.68965 0.14446 4.73783C0.0873726 4.78601 0.0446457 4.84902 0.0209702 4.91992C-0.00270517 4.99083 -0.00641348 5.0669 0.0102525 5.13979C0.0269184 5.21267 0.0633141 5.27954 0.115443 5.33306L3.01889 8.31357L2.33257 12.5272C2.32031 12.6025 2.32948 12.6798 2.35901 12.7502C2.38855 12.8206 2.43726 12.8812 2.49958 12.9252C2.56191 12.9692 2.63533 12.9947 2.71145 12.9989C2.78757 13.003 2.86333 12.9856 2.93005 12.9487L6.49977 10.9729L10.0695 12.9492C10.1362 12.9862 10.212 13.0036 10.2881 12.9994C10.3642 12.9952 10.4376 12.9697 10.5 12.9258C10.5623 12.8818 10.611 12.8211 10.6405 12.7508C10.6701 12.6804 10.6792 12.6031 10.667 12.5277L9.98065 8.31411L12.8841 5.3336C12.9364 5.2801 12.9729 5.21318 12.9897 5.14022C13.0064 5.06727 13.0027 4.99109 12.9791 4.92009C12.9554 4.84908 12.9126 4.786 12.8554 4.73778C12.7982 4.68956 12.7289 4.65808 12.655 4.6468Z" fill="url(#paint0_linear_2056_2494)"/>
<defs>
<linearGradient id="paint0_linear_2056_2494" x1="6.5" y1="0" x2="6.5" y2="13" gradientUnits="userSpaceOnUse">
<stop stop-color="#FD9C00"/>
<stop offset="1" stop-color="#FFD301"/>
</linearGradient>
</defs>
</svg>
