<svg width="22" height="10" viewBox="0 0 22 10" fill="none" xmlns="http://www.w3.org/2000/svg">
<path d="M20.6263 2.96078C20.6263 3.84314 19.8413 4.55882 18.9583 4.55882C18.0752 4.55882 17.3884 3.84314 17.3884 2.96078C17.3884 2.08824 18.0752 1.37255 18.9583 1.37255C19.8413 1.37255 20.6263 2.08824 20.6263 2.96078ZM18.9583 0C17.7648 0 16.6848 0.759255 16.2354 1.84271C15.9519 2.52635 15.7867 3.27602 15.3616 3.88186L14.2639 5.4462C14.1939 5.54603 14.0762 5.58823 13.9543 5.58823C13.1724 5.58823 12.3616 5.73482 11.6362 5.44287L7.19332 3.65465C5.44264 2.95002 4.10657 0.784314 2.21942 0.784314C1.00276 0.784314 0 1.78431 0 3.0098C0 4.22549 1.00276 5.22549 2.21942 5.22549C2.97186 5.22549 3.76973 5.07645 4.46844 5.35571L9.01145 7.17147C10.7461 7.86477 12.0863 10 13.9544 10C14.3424 10 14.7178 9.88593 15.044 9.68924C16.1585 9.01724 16.7154 7.58938 17.7663 6.82175C18.5409 6.25592 19.5281 6.04732 20.3789 5.60414C21.3397 5.1036 22 4.11249 22 2.97059C21.9999 1.33333 20.6263 0 18.9583 0ZM18.9583 0.980392C20.1357 0.980392 21.0187 1.87255 21.0187 2.97059C21.0187 4.07843 20.1357 4.97059 18.9583 4.97059C17.879 4.97059 16.9959 4.07843 16.9959 2.97059C16.9959 1.87255 17.879 0.980392 18.9583 0.980392ZM2.21942 1.37255C2.53238 1.37255 2.82584 1.45778 3.07553 1.60761C3.33297 1.76209 3.13621 2.0226 2.85718 1.91176C2.19979 1.67647 1.47372 2 1.20881 2.64706C0.953702 3.30392 1.24805 4.03922 1.88582 4.32353L2.24156 4.46571C2.34793 4.50823 2.33386 4.63725 2.21932 4.63725C1.31674 4.63725 0.590569 3.91176 0.590569 3.0098C0.590667 2.09804 1.31674 1.37255 2.21942 1.37255ZM13.9543 6.17647C14.8373 6.17647 15.5241 6.91176 15.5241 7.81372C15.5241 8.72549 14.8373 9.41176 13.9543 9.41176C13.6077 9.41176 13.3112 9.3369 13.0646 9.19346C12.8369 9.06106 13.0176 8.83835 13.2674 8.92157C13.9543 9.21569 14.6411 8.82353 14.9354 8.19608C15.1317 7.58833 14.9354 6.755 14.2486 6.49029L13.9284 6.36232C13.82 6.31897 13.8374 6.17647 13.9543 6.17647Z" fill="white"/>
</svg>
