<svg width="19" height="19" viewBox="0 0 19 19" fill="none" xmlns="http://www.w3.org/2000/svg">
<path fill-rule="evenodd" clip-rule="evenodd" d="M17.596 4.53935H9.07271V2.05859H15.4058C16.2754 2.75095 17.0167 3.59062 17.596 4.53935ZM18.9998 9.49975H9.07791V7.01974H18.6729C18.8906 7.82841 19.0005 8.66229 18.9998 9.49975ZM9.49984 18.9997C11.6476 19.0047 13.7328 18.2768 15.411 16.9365H3.58906C5.267 18.277 7.35215 19.0049 9.49984 18.9997ZM17.6064 14.4613H1.3933C0.920413 13.6901 0.561326 12.8547 0.327148 11.9809H18.6725C18.4384 12.8547 18.0793 13.6901 17.6064 14.4613Z" fill="#D80027"/>
<path fill-rule="evenodd" clip-rule="evenodd" d="M4.41045 1.47844H4.40191V1.48438L4.41045 1.47844ZM4.41045 1.47844H5.26953L4.46018 2.0592L4.76633 3.0092L3.95883 2.42844L3.15652 3.0092L3.42037 2.18946C2.71121 2.78294 2.09251 3.47678 1.58383 4.24902H1.86363L1.35152 4.62012L1.11922 5.02832L1.36191 5.78312L0.902872 5.44914L0.586329 6.18613L0.850176 7.01367H1.85213L1.05576 7.60036L1.36191 8.55036L0.554415 7.9696L0.0794146 8.31769C0.0263939 8.70955 -0.000137701 9.10455 5.37404e-07 9.49999H9.5V8.00169e-06C7.69725 -0.00233661 5.93138 0.51062 4.41045 1.47844ZM4.76447 8.54554L4.77152 8.5511H4.76633L4.76447 8.54554ZM4.45981 7.60074L4.76447 8.54554L3.95846 7.97034L3.15096 8.5511L3.45711 7.60111L2.64961 7.02035H3.65156L3.95772 6.07035L4.26387 7.02035H5.26582L4.45981 7.60074ZM4.46537 4.83535L4.77152 5.78535L3.96402 5.20459L3.15652 5.78535L3.46268 4.83535L2.65518 4.25459H3.65713L3.96328 3.30459L4.26943 4.25459H5.27139L4.46537 4.83535ZM7.37326 7.97034L8.18076 8.5511L7.87461 7.60111L8.68359 7.02035H7.68164L7.37549 6.07035L7.06934 7.02035H6.06738L6.87488 7.60111L6.56873 8.5511L7.37326 7.97034ZM7.87461 4.83535L8.18076 5.78535L7.37326 5.20459L6.56576 5.78535L6.87191 4.83535L6.06441 4.25459H7.06637L7.37252 3.30459L7.67867 4.25459H8.68063L7.87461 4.83535ZM8.18076 3.01959L7.87461 2.06959L8.68359 1.48883H7.68164L7.37549 0.538835L7.06934 1.48883H6.06738L6.87488 2.06959L6.56873 3.01959L7.37623 2.43883L8.18076 3.01959Z" fill="#0052B4"/>
</svg>
